<svg xmlns="http://www.w3.org/2000/svg" data-name="Layer 1" viewBox="0 0 64 80" x="0px" y="0px">
    <path d="M51.16,33.09H46.32a3.25,3.25,0,0,0-3.25,3.25v5a15.44,15.44,0,0,0-9.16-3.69,13.28,13.28,0,1,0-13.79,0A14.87,14.87,0,0,0,6.53,52.46v4.87a1,1,0,0,0,1,1H51.16a3.25,3.25,0,0,0,3.25-3.25V36.34A3.25,3.25,0,0,0,51.16,33.09ZM15.71,26.32A11.28,11.28,0,1,1,27,37.6H27A11.3,11.3,0,0,1,15.71,26.32Zm36.7,28.76a1.25,1.25,0,0,1-1.25,1.25H8.53V52.46A12.87,12.87,0,0,1,21.39,39.6H33a13.5,13.5,0,0,1,10.29,4.79,1,1,0,0,0,1.76-.65v-7.4a1.25,1.25,0,0,1,1.25-1.25h4.83a1.25,1.25,0,0,1,1.25,1.25Z"/>
    <path d="M48.53,5.67a8.94,8.94,0,0,0-3.37,17.22V30.3a1,1,0,0,0,1,1h4.75a1,1,0,0,0,1-1V22.89A8.94,8.94,0,0,0,48.53,5.67Zm2.08,15.56a1,1,0,0,0-.7,1V29.3H47.16V22.19a1,1,0,0,0-.7-1,6.94,6.94,0,1,1,4.15,0Z"/>
</svg>