<svg xmlns="http://www.w3.org/2000/svg" xmlns:xlink="http://www.w3.org/1999/xlink" xml:space="preserve" version="1.1"
     style="shape-rendering:geometricPrecision;text-rendering:geometricPrecision;image-rendering:optimizeQuality;"
     viewBox="0 0 847 1058.75" x="0px" y="0px" fill-rule="evenodd" clip-rule="evenodd"><defs><style type="text/css">
   
    .fil0 {fill:rgba(0, 0, 0, 0.47)}
   
  </style></defs>
    <g><path class="fil0" d="M423 20c223,0 404,180 404,403 0,223 -181,404 -404,404 -223,0 -403,-181 -403,-404 0,-223 180,-403 403,-403zm-182 163c-38,-38 -96,20 -58,58l182 182 -182 183c-38,38 20,96 58,58l182 -183 183 183c38,38 96,-20 58,-58l-183 -183 183 -182c38,-38 -20,-96 -58,-58l-183 182 -182 -182z"/></g>
</svg>