<svg xmlns="http://www.w3.org/2000/svg" xmlns:xlink="http://www.w3.org/1999/xlink" version="1.1" x="0px" y="0px"
     viewBox="0 0 100 125" enable-background="new 0 0 100 100" xml:space="preserve"><g><g><path d="M87.5,14.6H12.5c-4,0-7.2,3.2-7.2,7.2v56.4c0,4,3.2,7.2,7.2,7.2h74.9c4,0,7.2-3.2,7.2-7.2V21.8    C94.7,17.8,91.4,14.6,87.5,14.6z M12.5,18.6h74.9c1.8,0,3.2,1.4,3.2,3.2v12.9H9.3V21.8C9.3,20,10.8,18.6,12.5,18.6z M63,51.7    c0,7.2-5.8,13-13,13s-13-5.8-13-13s5.8-13,13-13S63,44.5,63,51.7z M87.5,81.4H12.5c-1.8,0-3.2-1.4-3.2-3.2V38.7h29.7    c-3.7,3.1-6.1,7.8-6.1,13c0,9.4,7.6,17,17,17s17-7.6,17-17c0-5.2-2.4-9.9-6.1-13h29.7v39.5C90.7,80,89.2,81.4,87.5,81.4z"/><path
        d="M50,47.1c2.5,0,4.6,2.1,4.6,4.6c0,1.1,0.9,2,2,2s2-0.9,2-2c0-4.7-3.8-8.6-8.6-8.6c-1.1,0-2,0.9-2,2S48.9,47.1,50,47.1z"/><path stroke="#000" stroke-width="0.099167"
        d="M77.2,32.1h3.3c2.1,0,3.9-1.7,3.9-3.9V25c0-2.1-1.7-3.9-3.9-3.9h-3.3c-2.1,0-3.9,1.7-3.9,3.9v3.3    C73.3,30.4,75.1,32.1,77.2,32.1z M77.3,25.1h3v3h-3V25.1z"/></g></g>
</svg>