<svg xmlns="http://www.w3.org/2000/svg" xmlns:xlink="http://www.w3.org/1999/xlink" version="1.1" x="0px" y="0px"
     viewBox="0 0 30 37.5" xml:space="preserve"><g transform="translate(-210 -1040)"><g xmlns="http://www.w3.org/2000/svg" xmlns:xlink="http://www.w3.org/1999/xlink"><path
        stroke="#000" stroke-width="0.129167"
        d="M215.976,1052c-1.656,0-3,1.344-3,3s1.344,3,3,3s3-1.344,3-3S217.632,1052,215.976,1052z M215.976,1057    c-1.103,0-2-0.896-2-2c0-1.103,0.897-2,2-2s2,0.897,2,2C217.976,1056.104,217.078,1057,215.976,1057z"/><path
        d="M224.976,1052c-1.656,0-3,1.344-3,3s1.344,3,3,3s3-1.344,3-3S226.632,1052,224.976,1052z M224.976,1057    c-1.103,0-2-0.896-2-2c0-1.103,0.897-2,2-2s2,0.897,2,2C226.976,1056.104,226.078,1057,224.976,1057z"/><path
        d="M233.976,1052c-1.656,0-3,1.344-3,3s1.344,3,3,3s3-1.344,3-3S235.632,1052,233.976,1052z M233.976,1057    c-1.103,0-2-0.896-2-2c0-1.103,0.897-2,2-2s2,0.897,2,2C235.976,1056.104,235.078,1057,233.976,1057z"/></g></g>
</svg>