<svg xmlns="http://www.w3.org/2000/svg" xmlns:xlink="http://www.w3.org/1999/xlink" xml:space="preserve" version="1.1"
     style="shape-rendering:geometricPrecision;text-rendering:geometricPrecision;image-rendering:optimizeQuality;"
     viewBox="0 0 53.908 54.363749999999996" x="0px" y="0px" fill-rule="evenodd" clip-rule="evenodd"><defs><style type="text/css">
   
    .fil0 {fill:black;fill-rule:nonzero}
   
  </style></defs>
    <g><path stroke="#000" stroke-width="0.29167" class="fil0" d="M3.77 17.383l7.851 -1.643c0.454,-0.094 0.899,0.197 0.994,0.651 0.011,0.057 0.017,0.115 0.018,0.171l0.002 25.244 28.639 0 0 -25.244c0,-0.465 0.377,-0.842 0.842,-0.842 0.083,0 0.163,0.011 0.238,0.034l7.785 1.629 1.954 -9.018 -15.953 -6.316c-0.274,2.051 -1.235,3.895 -2.645,5.294 -1.68,1.667 -3.996,2.703 -6.541,2.703 -2.544,0 -4.861,-1.036 -6.541,-2.703 -1.409,-1.399 -2.37,-3.243 -2.644,-5.294l-15.953 6.316 1.954 9.018zm30.697 -15.537c-2.496,0.386 -5.001,0.575 -7.513,0.572 -2.511,-0.002 -5.016,-0.196 -7.513,-0.576 0.226,1.67 1.009,3.171 2.157,4.31 1.372,1.363 3.269,2.209 5.356,2.209 2.087,0 3.984,-0.846 5.357,-2.209 1.146,-1.138 1.93,-2.638 2.156,-4.306zm-15.745 -1.824c2.753,0.473 5.499,0.716 8.232,0.719 2.743,0.002 5.497,-0.236 8.26,-0.724l0.002 -0.001 0.017 -0.003c0.147,-0.025 0.304,-0.012 0.454,0.047l17.689 7.002c0.376,0.149 0.601,0.552 0.513,0.961l-2.282 10.531c-0.099,0.451 -0.542,0.739 -0.993,0.645l-7.655 -1.603 0 25.053c0,0.465 -0.378,0.842 -0.843,0.842l-30.324 0c-0.465,0 -0.842,-0.377 -0.842,-0.842l0 -25.053 -7.648 1.603c-0.454,0.098 -0.902,-0.191 -1,-0.645l-2.276 -10.504c-0.102,-0.404 0.109,-0.831 0.507,-0.988l17.653 -6.988c0.105,-0.048 0.222,-0.074 0.345,-0.074 0.066,0 0.13,0.008 0.191,0.022zm18.34 15.814c0.465,0 0.843,0.377 0.843,0.843 0,0.465 -0.378,0.842 -0.843,0.842l-6.738 0c-0.465,0 -0.843,-0.377 -0.843,-0.842 0,-0.466 0.378,-0.843 0.843,-0.843l6.738 0z"/></g>
</svg>