<svg xmlns:dc="http://purl.org/dc/elements/1.1/" xmlns:cc="http://creativecommons.org/ns#"
     xmlns:rdf="http://www.w3.org/1999/02/22-rdf-syntax-ns#" xmlns:svg="http://www.w3.org/2000/svg"
     xmlns="http://www.w3.org/2000/svg" xmlns:sodipodi="http://sodipodi.sourceforge.net/DTD/sodipodi-0.dtd"
     xmlns:inkscape="http://www.inkscape.org/namespaces/inkscape" viewBox="0 0 16.933333 21.1666675" version="1.1"
     x="0px" y="0px">
    <g transform="translate(0,-280.06665)">
        <path style="color:#000000;font-style:normal;font-variant:normal;font-weight:normal;font-stretch:normal;font-size:medium;line-height:normal;font-family:sans-serif;font-variant-ligatures:normal;font-variant-position:normal;font-variant-caps:normal;font-variant-numeric:normal;font-variant-alternates:normal;font-variant-east-asian:normal;font-feature-settings:normal;font-variation-settings:normal;text-indent:0;text-align:start;text-decoration:none;text-decoration-line:none;text-decoration-style:solid;text-decoration-color:#000000;letter-spacing:normal;word-spacing:normal;text-transform:none;writing-mode:lr-tb;direction:ltr;text-orientation:mixed;dominant-baseline:auto;baseline-shift:baseline;text-anchor:start;white-space:normal;shape-padding:0;shape-margin:0;inline-size:0;clip-rule:nonzero;display:inline;overflow:visible;visibility:visible;opacity:1;isolation:auto;mix-blend-mode:normal;color-interpolation:sRGB;color-interpolation-filters:linearRGB;solid-color:#000000;solid-opacity:1;vector-effect:none;fill:#000000;fill-opacity:1;fill-rule:nonzero;stroke:#000;stroke-width:0.129167;stroke-linecap:round;stroke-linejoin:round;stroke-miterlimit:4;stroke-dasharray:none;stroke-dashoffset:0;stroke-opacity:1;color-rendering:auto;image-rendering:auto;shape-rendering:auto;text-rendering:auto;enable-background:accumulate;stop-color:#000000;stop-opacity:1"
              d="m 4.2335915,281.91899 c -0.3527795,0 -0.6741371,0.16824 -0.9141566,0.40824 -0.2400088,0.24002 -0.4082441,0.56138 -0.4082441,0.91416 v 2.91042 H 1.5867236 c -0.2204799,0 -0.4100803,0.10105 -0.5508704,0.24184 -0.14079008,0.1408 -0.24184504,0.33245 -0.24184504,0.55294 v 5.82032 c 0,0.22049 0.10105496,0.41008 0.24184504,0.55087 0.1407901,0.14079 0.3303905,0.24184 0.5508704,0.24184 h 2.3828005 v 1.32447 a 0.26460982,0.26460982 0 0 0 0.2640674,0.26355 h 1.0583334 a 0.26460982,0.26460982 0 0 0 0.2635488,-0.26355 v -1.32447 h 5.8223833 v 1.32447 a 0.26460982,0.26460982 0 0 0 0.263552,0.26355 h 1.058849 a 0.26460982,0.26460982 0 0 0 0.265618,-0.26355 v -1.32447 h 2.380731 c 0.220483,0 0.410075,-0.10105 0.550871,-0.24184 0.140795,-0.14079 0.241845,-0.33038 0.241847,-0.55087 v -3.17604 -2.64428 c -2e-6,-0.22049 -0.101052,-0.41214 -0.241847,-0.55294 -0.140793,-0.14079 -0.330388,-0.24184 -0.550871,-0.24184 H 14.02214 v -2.91042 c 0,-0.35278 -0.167714,-0.67414 -0.407725,-0.91416 -0.240015,-0.24 -0.56138,-0.40824 -0.914157,-0.40824 z m 0,0.52969 h 8.4666665 c 0.17639,0 0.384191,0.0948 0.541052,0.25166 0.156863,0.15687 0.251663,0.36466 0.251663,0.54105 v 2.91042 h -0.263548 c -0.220483,0 -0.410078,0.10105 -0.550871,0.24184 -0.140795,0.1408 -0.241845,0.33245 -0.241845,0.55294 v 3.17397 c 0,0.0441 -0.03073,0.11961 -0.08837,0.17725 -0.05764,0.0576 -0.13316,0.0884 -0.17725,0.0884 H 5.0418116 4.7627582 c -0.04409,0 -0.1180597,-0.0307 -0.1756992,-0.0884 -0.05764,-0.0576 -0.08785,-0.13315 -0.08785,-0.17725 v -3.17397 c 0,-0.22049 -0.10364,-0.41214 -0.24443,-0.55294 -0.1407901,-0.14079 -0.3303905,-0.24184 -0.5508705,-0.24184 h -0.263551 v -2.91042 c 0,-0.17639 0.095321,-0.38418 0.2521823,-0.54105 0.1568582,-0.15686 0.3646514,-0.25166 0.5410517,-0.25166 z m -2.6468679,4.23229 h 2.1171853 c 0.044098,0 0.1201262,0.0302 0.1777656,0.0879 0.05765,0.0577 0.08785,0.13367 0.08785,0.17777 v 3.17397 c 0,0.22048 0.1015736,0.40955 0.2423637,0.55035 0.14079,0.14079 0.3303905,0.24443 0.5508704,0.24443 h 0.2790534 7.129279 c 0.22048,0 0.409559,-0.10364 0.550355,-0.24443 0.140793,-0.1408 0.24443,-0.32987 0.24443,-0.55035 v -3.17397 c 0,-0.0441 0.03021,-0.12012 0.08785,-0.17777 0.05764,-0.0576 0.131599,-0.0879 0.1757,-0.0879 h 2.117182 c 0.0441,0 0.118055,0.0302 0.175702,0.0879 0.05764,0.0577 0.08785,0.13366 0.08785,0.17777 v 2.64428 3.17604 c 0,0.0441 -0.03021,0.11806 -0.08785,0.1757 -0.05764,0.0576 -0.131601,0.0879 -0.175702,0.0879 H 12.700258 11.641409 1.5867236 c -0.044098,0 -0.1180597,-0.0302 -0.1756992,-0.0879 -0.05764,-0.0576 -0.08785,-0.1316 -0.08785,-0.1757 v -5.82032 c 0,-0.0441 0.03021,-0.12012 0.08785,-0.17777 0.057639,-0.0576 0.1316011,-0.0879 0.1756992,-0.0879 z m 2.9124858,6.87865 h 0.5291667 v 1.05885 H 4.4992094 Z m 7.4078146,0 h 0.529685 v 1.05885 h -0.529685 z"/>
    </g>

</svg>