<svg xmlns="http://www.w3.org/2000/svg" viewBox="0 0 32 40" fill="none" x="0px" y="0px">
    <path fill-rule="evenodd" clip-rule="evenodd"
          d="M0 16C0 24.8366 7.16344 32 16 32C24.8366 32 32 24.8366 32 16C32 7.16344 24.8366 0 16 0C7.16344 0 0 7.16344 0 16ZM17 23C17 23.5523 16.5523 24 16 24C15.4477 24 15 23.5523 15 23V11.1511L9.64458 15.6662C9.22234 16.0222 8.59146 15.9685 8.23547 15.5462C7.87948 15.124 7.93319 14.4931 8.35543 14.1371L15.3554 8.23546C15.7278 7.92151 16.2722 7.92151 16.6446 8.23546L23.6446 14.1371C24.0668 14.4931 24.1205 15.124 23.7645 15.5462C23.4086 15.9685 22.7777 16.0222 22.3554 15.6662L17 11.1511V23Z"
          fill="black"/>
</svg>